<?xml version="1.0" encoding="UTF-8" standalone="no"?>
<svg
   xmlns:dc="http://purl.org/dc/elements/1.1/"
   xmlns:cc="http://creativecommons.org/ns#"
   xmlns:rdf="http://www.w3.org/1999/02/22-rdf-syntax-ns#"
   xmlns:svg="http://www.w3.org/2000/svg"
   xmlns="http://www.w3.org/2000/svg"
   xmlns:sodipodi="http://sodipodi.sourceforge.net/DTD/sodipodi-0.dtd"
   xmlns:inkscape="http://www.inkscape.org/namespaces/inkscape"
   id="svg2"
   viewBox="0 0 744.09448 1052.3622"
   version="1.1"
   inkscape:version="0.91 r13725"
   sodipodi:docname="Stone_NoShadow.svg"
   width="210mm"
   height="297mm">
  <sodipodi:namedview
     pagecolor="#ffffff"
     bordercolor="#666666"
     borderopacity="1"
     objecttolerance="10"
     gridtolerance="10"
     guidetolerance="10"
     inkscape:pageopacity="0"
     inkscape:pageshadow="2"
     inkscape:window-width="1563"
     inkscape:window-height="876"
     id="namedview24"
     showgrid="false"
     units="mm"
     inkscape:zoom="0.20415225"
     inkscape:cx="666.45001"
     inkscape:cy="-401.66102"
     inkscape:window-x="37"
     inkscape:window-y="24"
     inkscape:window-maximized="1"
     inkscape:current-layer="layer1" />
  <title
     id="title3945">Stone</title>
  <defs
     id="defs4">
    <filter
       id="filter3986"
       style="color-interpolation-filters:sRGB">
      <feGaussianBlur
         id="feGaussianBlur3988"
         stdDeviation="12.898788" />
    </filter>
  </defs>
  <g
     id="layer1"
     transform="translate(-925.87,132.46221)">
    <g
       id="g3931"
       transform="matrix(0.82012723,0.00238775,-0.00238775,0.82012723,1048.0442,76.687642)"
       inkscape:export-xdpi="300"
       inkscape:export-ydpi="300">
      <path
         id="path3006-1"
         d="m 67.36,-158.21 c -17.279,3.0713 -35.335,14.069 -33.043,33.612 -7.4476,16.048 -14.719,32.185 -22.008,48.221 -10.712,18.638 -22.285,37.853 -22.893,60.015 -2.7339,25.779 -22.356,47.703 -19.573,74.561 0.0089,29.32 0.0031,58.647 0,87.968 -0.73744,1.6377 -1.364,3.3346 -1.8655,5.0592 -4.8611,23.544 -4.8059,48.111 -13.565,70.861 -9.509,10.334 -12.397,24.651 -14.103,38.134 -2.9869,18.283 -4.6517,36.557 -6.419,54.988 -4.1718,20.531 -11.494,40.303 -15.367,60.964 -7.9464,18.272 1.9671,42.039 -12.363,57.834 -6.647,22.752 -26.471,40.452 -26.877,65.106 0.47344,8.4494 5.9492,13.456 12.87,17.676 -1.5838,4.5691 -2.9072,9.3053 -4.7747,12.901 -6.7401,17.088 -4.201,35.74 -4.8379,53.596 -0.20864,3.554 0.37682,6.3572 1.5494,8.6323 3.0883,13.072 12.125,30.368 22.451,44.047 27.065,22.162 32.185,57.948 38.925,90.118 2.0083,15.51 6.2053,29.333 11.352,42.245 0.67248,2.7496 1.6343,5.3311 3.162,7.5889 7.2857,16.697 15.864,32.053 22.988,47.81 21.133,29.064 67.652,13.904 87.462,44.806 19.45,22.603 47.501,42.604 78.861,38.261 63.854,13.424 129.29,18.064 193.14,30.703 55.037,1.2541 110.11,0.14864 165.15,0.50593 6.9509,12.076 45.529,10.311 73.454,4.6482 4.6765,1.481 9.0768,2.7235 12.648,3.4782 4.5252,2.4839 9.8806,2.5501 17.012,-2.1818 17.754,-17.659 40.073,-27.397 64.822,-30.83 20.893,-6.0125 43.178,-8.9672 62.735,-17.107 5.1979,-24.345 -4.0423,-49.6 -8.8854,-73.77 -11.101,-23.059 -11.865,-49.234 -15.747,-74.244 -2.3098,-24.376 -9.3361,-47.929 -12.553,-71.968 0.25094,-15.355 4.9888,-42.315 0.3162,-55.62 0.0466,-0.32916 0.0498,-0.67136 0.0632,-1.0434 0.49186,-6.4366 0.0114,-12.809 -0.79056,-19.162 0.10443,-4.3223 -0.0139,-9.0415 -0.41101,-14.229 -1.1,-3.6242 -2.0801,-7.2901 -2.9406,-10.972 -0.0911,-1.1575 -0.13862,-2.3176 -0.18982,-3.4781 -1.6422,-10.732 -1.9537,-21.624 -1.7707,-32.411 -0.9818,-10.236 -2.199,-20.53 -4.7746,-30.482 -0.33988,-14.689 -0.38784,-29.38 -1.0118,-43.826 -1.7982,-32.502 9.6891,-78.424 -27.225,-94.513 -34.795,-25.788 -17.531,-77.824 -21.565,-115.22 6.0825,-25.522 -0.93181,-48.648 -15.526,-67.003 -1.4038,-3.4344 -3.6376,-6.4405 -6.83,-8.7588 -7.4401,-18.499 -15.067,-22.421 -46.419,-30.166 -1.5826,-1.1146 -3.1275,-2.2706 -4.6482,-3.4466 -1.2304,-18.88 -17.848,-31.806 -31.114,-46.197 -14.51,-14.594 -22.97,-26.137 -35.85,-39.981 -4.75,-19.559 -19.49,-33.926 -30.93,-49.676 -19.02,-19.831 -26.22,-50.69 -52.71,-62.924 -19.394,-6.8081 -33.826,-24.317 -54.545,-27.352 -12.255,2.4982 -31.092,7.2513 -39.304,-1.5494 -5.6669,-0.51564 -11.163,-1.5012 -16,-1.8656 -15.616,-6.7964 -31.258,-13.61 -47.43,-18.846 -31.638,-21.984 -77.176,-15.522 -104.09,-43.731 -29.011,-3.1079 -58.819,-11.134 -87.462,-11.257 l -0.5376,-0.50593 z"
         inkscape:connector-curvature="0"
         style="fill:#666666;stroke:#000000;stroke-width:12" />
      <path
         id="path3006"
         d="m -20,140.93 c 4.3847,20.532 15.045,40.346 11.212,61.941 -0.44572,23.197 24.037,56.1 13.411,77.799 -6.0152,18.316 -15.089,34.052 -13.192,53.356 -2.232,19.396 -12.572,32.265 -1.9184,48.713 10.684,19.938 14.352,42.782 17.941,64.8 2.4284,22.402 24.14,44.855 24.053,67.345 1.4586,19.258 0.32013,86.082 -24.216,94.921 -17.587,7.9096 -49.575,-30.254 -58.788,-10.005 -5.8048,12.776 -16.015,9.1861 -15.143,-4.3656 -0.65017,-19.518 7.6497,-43.022 -7.9145,-58.846 -9.443,-17.406 -39.528,-17.737 -40.662,-37.98 0.40169,-24.365 19.997,-41.855 26.566,-64.34 14.163,-15.61 4.3498,-39.087 12.203,-57.145 3.8282,-20.419 11.062,-39.953 15.185,-60.244 1.7466,-18.215 3.4144,-36.297 6.3663,-54.365 1.6854,-13.326 4.5278,-27.463 13.925,-37.676 8.6566,-22.484 8.5995,-46.768 13.404,-70.036 1.4831,-5.1001 4.0148,-9.9076 7.5681,-13.872 z"
         inkscape:connector-curvature="0"
         style="fill:#666666" />
      <path
         id="path3008"
         d="m -85.888,501.08 c -15.39,-1.4793 -16.105,17.697 -21.332,27.761 -6.6613,16.888 -4.1577,35.335 -4.7871,52.983 -1.0735,18.283 19.381,16.537 29.758,25.004 16.045,10.063 22.043,28.798 29.064,45.32 3.3578,15.096 3.0169,30.881 8.6079,45.464 4.016,13.837 -0.24936,28.352 2.6571,42.405 3.4613,12.429 -0.81867,30.204 12.366,37.555 16.249,6.1087 17.753,-15.953 26.346,-23.895 9.1063,-11.32 24.059,-17.96 38.572,-15.62 13.972,-1.95 13.851,-21.72 11.336,-31.84 -7.761,-9.71 -20.165,-14.19 -28.074,-23.55 -8.368,-11.57 -14.62,-26.02 -28.313,-31.87 -13.053,-4.24 -16.416,-18.54 -23.994,-28.44 -7.1603,-6.694 -22.074,-7.3764 -18.336,-21.325 0.26502,-13.049 1.7021,-26.439 -0.81551,-39.315 -7.7814,-13.347 -2.5989,-32.433 -15.761,-42.986 -3.5279,-7.7151 -10.348,-13.146 -17.293,-17.657 z"
         inkscape:connector-curvature="0"
         style="fill:#666666" />
      <path
         id="path3004"
         d="m 83.694,693.88 c -12.96,-8.6 4.576,-25.22 1.571,-39.28 -3.686,-17.3 -18.441,-51.45 -32.233,-61.92 -9.4033,-7.4545 -30.224,1.5439 -42.101,-1.8783 -26.488,-33.385 -13.5,-18.039 -34.347,-18.194 -5.7365,9.5085 -39.917,16.674 -40.814,23.34 0.19233,9.9137 5.5248,11.842 8.2244,21.444 1.7082,11.655 12.815,22.106 17.831,32.78 4.3374,11.268 11.966,20.796 19.31,30.22 4.4413,5.6352 11.293,8.0853 17.99,9.7899 9.9257,2.4364 16.211,10.624 23.882,16.434 8.4604,3.6609 18.798,5.6157 22.396,15.419 8.7769,16.96 28.165,3.3249 30.825,-2.9798 3.8161,-6.4973 12.757,-50.965 20.417,-52.433 1.406,-0.40711 -14.328,27.761 -12.952,27.261 z"
         inkscape:connector-curvature="0"
         style="fill:#4d4d4d" />
      <path
         id="path3002"
         d="m 388.46,875.88 c -14.205,-0.85181 -17.565,-47.114 -33.058,-47.353 -12.957,-8.6066 -26.09,-17.858 -38.413,-26.993 -8.4543,-7.9022 -39.115,-8.2484 -49.501,-15.555 -14.359,-8.2475 -28.577,-16.735 -41.134,-27.578 -11.125,-6.6898 -25.7,5.484 -36.508,-1.585 -12.506,-4.9796 -18.436,-11.616 -30.303,-18.534 -15.044,-6.5186 -50.234,-89.52 -66.062,-94.434 -13.796,-3.3987 -8.471,55.504 -23.892,62.74 -11.798,10.156 -24.37,25.567 -21.505,39.258 6.8158,10.413 26.196,28.096 31.065,39.526 5.0998,15.397 10.421,31.129 21.624,43.338 9.0042,8.6693 17.299,18.413 27.629,25.59 11.295,9.7904 14.44,27.207 26.583,35.744 14.661,2.7502 37.534,-3.8151 49.483,5.3496 13.167,5.0856 26.702,9.5596 41.003,8.5296 19.38,-0.44605 38.869,1.054 58.038,-2.4469 15.151,-2.698 32.919,4.2066 45.407,-7.8341 18.35,9.8419 54.187,0.94933 39.542,-17.761 z"
         inkscape:connector-curvature="0"
         style="fill:#4d4d4d" />
      <path
         id="path3012"
         d="m 554.29,915.22 c 25.203,-7.351 27.29,40.32 53.345,23.031 17.546,-17.452 39.612,-27.088 64.071,-30.481 20.649,-5.9421 42.674,-8.8502 62.002,-16.894 5.137,-24.06 -4.0018,-49.026 -8.788,-72.913 -10.971,-22.789 -11.727,-48.649 -15.563,-73.366 -2.2827,-24.09 -9.2224,-47.36 -12.402,-71.118 0.36731,-22.472 10.476,-70.186 -14.327,-61.805 -13.869,17.628 -23.634,30.266 -49.33,34.422 -22.666,8.4452 -54.697,8.3197 -78.305,14.194 -39.581,13.777 -71.09,44.665 -112.77,50.615 -22.661,7.6458 -45.261,16.317 -69.208,19.302 -25.141,7.1474 -49.897,15.346 -74.005,25.275 -18.433,6.0058 -37.821,9.1191 -55.58,17.133 -25.535,1.6929 8.7399,17.995 15.145,22.44 18.574,19.877 47.538,23.401 68.275,40.359 23.745,10.022 39.655,31.404 41.211,57.231 -0.66198,18.166 19.058,41.051 31.014,17.767 8.4552,-16.57 37.359,-11.408 49.765,-27.282 25.141,-3.0489 50.453,-3.6636 75.633,-5.3527 26.807,-2.7059 33.525,13.527 29.819,37.441 z"
         inkscape:connector-curvature="0"
         style="fill:#999999" />
      <path
         id="path3000"
         d="m -82.857,578.08 c -45.561,-25.034 -28.799,24.835 -5.4174,55.81 26.748,21.902 31.81,57.255 38.47,89.049 5.0142,38.726 23.663,66.865 37.06,96.498 20.885,28.723 66.848,13.738 86.426,44.278 19.222,22.338 46.963,42.109 77.956,37.817 63.106,13.266 127.78,17.84 190.88,30.332 54.392,1.2394 108.8,0.1488 163.2,0.5019 15.936,27.686 200.16,-18.206 30.651,-15.16 -30.78,-17.468 -67.588,-12.975 -101.28,-18.788 -32.439,1.8546 -64.355,-3.7757 -96.337,-6.1528 -38.538,-0.2746 -77.103,1.1246 -115.62,-0.7529 -26.76,-13.774 -64.442,1.4365 -84.647,-25.561 -6.1471,-30.556 -17.829,-71.771 -46.891,-90.091 -36.264,-32.69 -46.603,-69.95 -89.418,-95.78 -30.323,-23.55 -49.205,-65.37 -73.102,-94.02 -3.4908,-3.3036 -7.491,-6.1155 -11.931,-7.9928 z"
         inkscape:connector-curvature="0"
         style="fill:#1a1a1a" />
      <path
         id="path3010"
         d="m 388.57,918.08 c 14.38,-5.1429 21.369,-20.466 34.736,-27.214 11.916,-9.4452 27.491,-15.511 42.814,-12.73 14.831,0.30719 29.67,-4.0226 44.495,-3.327 9.215,4.4639 25.291,-7.0616 34.881,-6.5218 7.3008,3.2943 42.016,25.649 41.182,32.531 19.094,6.5169 36.905,12.536 36.909,20.018 0.004,7.4826 -12.897,19.697 -19.282,22.264 -0.37467,6.7363 -56.152,-17.099 -61.281,-18.811 -13.023,-5.2681 -27.439,-3.7309 -41.157,-3.261 -21.208,0.69044 -42.434,-0.88423 -63.646,-0.0279 -14.696,3.9171 -30.68,5.0059 -45.241,-0.072 -1.5713,-0.77906 -3.0631,-1.7251 -4.411,-2.8492 z"
         inkscape:connector-curvature="0"
         style="fill:#333333" />
      <path
         id="path3014"
         d="m 68.698,-150.49 c -21.21,19.147 -33.262,6.3068 -24.939,34.185 -6.5044,48.588 -41.665,87.943 -47.347,136.41 0.98136,45.325 -14.006,88.883 -16.469,133.3 14.009,40.736 31.383,83.854 7.3963,125.01 -6.9644,39.535 -5.4237,80.691 -2.5032,120.66 28.064,27.118 20.32,67.41 28.792,102.53 21.205,34.541 -15.109,71.545 5.5714,101.39 45.669,10.807 38.855,74.503 69.619,94.54 13.416,41.891 47.776,31.373 88.324,69.123 39.482,23.406 84.557,10.026 128.17,11.546 37.694,-1.3828 63.596,-40.151 105.34,-36.546 49.716,6.0989 76.958,-33.834 118.27,-51.039 34.005,-26.101 75.677,-29.766 116.19,-36.244 28.981,-11.858 55.274,-14.171 51.008,-69.897 -11.596,-38.204 -8.8534,-79.929 -10.573,-119.75 -1.7771,-32.121 9.5915,-77.501 -26.89,-93.402 -34.388,-25.486 -17.343,-76.907 -21.33,-113.87 9.9499,-41.749 -15.472,-77.091 -51.832,-95.116 -51.71,-25.42 -71.48,-82.461 -108.5,-122.54 -23.41,-33.841 -42.27,-81.108 -86.93,-90.72 -46.21,-5.333 -85.9,-31.088 -129.56,-45.222 -31.27,-21.728 -76.28,-15.358 -102.88,-43.238 -29.515,-3.1618 -59.864,-11.474 -88.932,-11.115 z"
         inkscape:connector-curvature="0"
         style="fill:#b3b3b3" />
      <path
         id="path3047"
         d="m 323.17,-75.689 c -17.997,-1.6376 -34.182,-7.9239 -32.972,15.98 0.0147,19.077 30.48,15.097 31.452,35.704 15.408,11.458 26.686,30.373 45.25,35.94 25.86,-1.7094 21.275,25.705 25.117,42.594 6.3492,19.807 21.904,34.824 32.579,52.409 14.125,22.136 38.502,35.563 50.82,58.948 9.7379,17.945 13.355,38.763 26.56,54.891 4.8272,15.415 16.107,31.362 34.051,25.873 17.951,2.4652 48.658,16.846 57.02,-6.0141 25.743,-4.6119 41.453,-44.084 22.197,-58.068 -7.7016,-19.149 -15.544,-22.51 -50.386,-30.943 0.0439,-19.92 -17.195,-33.128 -30.835,-47.925 -14.35,-14.452 -22.71,-25.878 -35.45,-39.56 -4.69,-19.33 -19.23,-33.52 -30.54,-49.085 -18.79,-19.599 -25.93,-50.102 -52.11,-62.193 -19.17,-6.729 -33.41,-24.03 -53.89,-27.03 -12.111,2.4689 -30.751,7.1659 -38.867,-1.5317 z"
         inkscape:connector-curvature="0"
         style="fill:#e6e6e6" />
      <path
         id="path3074"
         d="m 70.671,-151 c -17.077,3.0354 -34.924,13.904 -32.659,33.219 -7.3604,15.86 -14.544,31.795 -21.747,47.643 -10.587,18.419 -22.046,37.43 -22.647,59.333 -2.7018,25.477 -22.082,47.133 -19.332,73.676 0.01318,43.163 -0.0086,86.327 -6.54e-4,129.49 -7.7775,16.093 -3.111,34.657 -7.886,51.117 -0.64282,15.047 -2.3004,33.836 1.0303,46.79 27.602,2.4183 26.632,-24.791 30.572,-41.392 9.592,-15.69 3.9689,-37.01 9.1159,-54.45 2.9771,-17.55 6.1041,-35.13 15.816,-50.25 7.516,-21.53 18.078,-42.1 32.825,-59.576 10.65,-15.087 13.863,-34.464 7.413,-51.914 -4.834,-16.658 -10.906,-33.302 -8.887,-50.938 0.02233,-21.229 -0.02231,-42.457 -5e-6,-63.686 10.003,-12.635 22.633,-22.23 37.544,-27.758 4.8879,-2.2869 2.8995,-11.831 4.0927,-14.752 1.0553,-2.5835 -5.1804,-8.1292 -14.335,-7.5443 -12.725,-0.39873 -24.827,-0.58715 -8.9072,-17.091"
         inkscape:connector-curvature="0"
         style="fill:#808080" />
      <path
         id="path3079"
         d="m 680,478.08 c -12.244,-2.5314 -22.702,8.3011 -35.108,5.7414 -23.535,-0.0115 -47.071,-0.11321 -70.606,-0.0273 -9.0528,-6.7344 -22.274,-2.633 -30.535,-11.18 -11.898,-6.1469 -22.452,-14.493 -35.039,-18.991 -9.5008,-6.0598 -21.003,-5.5014 -30.964,-10.309 -8.0275,1.3975 5.2406,12.89 5.0141,18.193 3.002,9.8116 6.3867,19.276 10.752,28.533 3.1869,10.121 7.0682,20.332 14.948,27.798 8.3475,10.533 14.6,23.046 17.507,36.06 8.1437,2.1815 8.3902,14.103 14.722,20.443 5.5625,7.798 9.4327,17.226 7.8532,26.932 1.6514,15.339 19.103,10.55 29.404,13.071 14.227,2.8152 28.88,-1.3917 42.995,2.7249 9.5189,1.5713 19.443,0.35509 29.032,2.1972 8.1202,2.5603 15.964,0.94272 24.231,1.3894 7.3082,-0.57596 22.719,7.7919 23.117,-3.1978 1.2169,-15.924 -3.6007,-31.445 -4.2983,-47.277 -1.6229,-10.606 -1.9207,-21.364 -1.7399,-32.025 -1.3089,-13.645 -3.0648,-27.377 -7.9274,-40.272 -1.5522,-6.5268 -1.3977,-13.359 -3.3573,-19.803 z"
         inkscape:connector-curvature="0"
         style="fill:#999999" />
    </g>
  </g>
  <metadata
     id="metadata22">
    <rdf:RDF>
      <cc:Work>
        <dc:format>image/svg+xml</dc:format>
        <dc:type
           rdf:resource="http://purl.org/dc/dcmitype/StillImage" />
        <cc:license
           rdf:resource="http://creativecommons.org/publicdomain/zero/1.0/" />
        <dc:publisher>
          <cc:Agent
             rdf:about="http://openclipart.org/">
            <dc:title>Openclipart</dc:title>
          </cc:Agent>
        </dc:publisher>
        <dc:title>Stone</dc:title>
        <dc:date>2013-11-15T07:14:23</dc:date>
        <dc:description>grey stone, stein, nature </dc:description>
        <dc:source>https://openclipart.org/detail/188777/stone-by-arking-188777</dc:source>
        <dc:creator>
          <cc:Agent>
            <dc:title>arking</dc:title>
          </cc:Agent>
        </dc:creator>
        <dc:subject>
          <rdf:Bag>
            <rdf:li>grey</rdf:li>
            <rdf:li>nature</rdf:li>
            <rdf:li>stein</rdf:li>
            <rdf:li>stone</rdf:li>
            <rdf:li>upload2openclipart</rdf:li>
          </rdf:Bag>
        </dc:subject>
      </cc:Work>
      <cc:License
         rdf:about="http://creativecommons.org/publicdomain/zero/1.0/">
        <cc:permits
           rdf:resource="http://creativecommons.org/ns#Reproduction" />
        <cc:permits
           rdf:resource="http://creativecommons.org/ns#Distribution" />
        <cc:permits
           rdf:resource="http://creativecommons.org/ns#DerivativeWorks" />
      </cc:License>
    </rdf:RDF>
  </metadata>
</svg>
