# Blender 4.4.3
# www.blender.org
mtllib eth.mtl
o Cube
v -6.310000 1.000000 -1.000000
v -6.310000 1.000000 1.000000
v -1.061453 1.000000 1.000000
v -0.562421 1.000000 -1.000000
v -1.061453 -1.000000 1.000000
v -0.562421 -1.000000 -1.000000
v 6.190000 1.000000 -1.000000
v 10.190001 1.000000 -1.000000
v 6.190000 1.000000 1.000000
v 10.190001 1.000000 1.000000
v -5.813874 0.987754 -4.000000
v 10.186127 0.987754 -4.000001
v 6.186126 0.987754 -4.000000
v 10.186127 -1.012246 -4.000001
v 12.186127 0.987754 -4.000001
v 2.186126 0.987754 -4.000000
v 12.186127 -1.012246 -4.000001
v 6.186126 -1.012246 -4.000000
v 2.186126 -1.012246 -4.000000
v 8.190001 1.000000 3.999999
v 8.190001 -1.000000 3.999999
v 8.186127 0.987754 -4.000000
v 10.190001 1.000000 3.999999
v 8.186127 -1.012246 -4.000000
v 10.190001 -1.000000 3.999999
v -5.310000 1.000000 -4.000000
v -6.810000 1.000000 2.000000
v 4.190000 1.000000 4.000000
v 4.190000 -1.000000 4.000000
v 4.186126 0.987754 -4.000000
v -5.310000 -1.000000 -4.000000
v 6.190000 1.000000 4.000000
v 6.190000 -1.000000 4.000000
v 4.186126 -1.012246 -4.000000
v 6.690000 1.000000 -4.000000
v 0.190000 1.000000 4.000000
v -5.813874 -1.012246 -4.000000
v 0.190000 -1.000000 4.000000
v 2.190000 1.000000 4.000000
v 6.690000 -1.000000 -4.000000
v 2.190000 -1.000000 4.000000
v -6.810000 1.000000 4.000000
v -5.310000 1.000000 -2.000000
v -3.813874 0.987754 -4.000000
v -3.813874 -1.012246 -4.000000
v 6.690000 1.000000 -2.000000
v -6.810000 -1.000000 4.000000
v -7.810000 1.000000 4.000000
v -1.810000 1.000000 4.000000
v -7.810000 -1.000000 4.000000
v -1.310969 1.000000 2.000000
v -5.810000 1.000000 4.000000
v -1.310969 -1.000000 2.000000
v -5.810000 -1.000000 4.000000
v -1.810000 -1.000000 4.000000
v -6.810000 0.996938 2.000000
v -5.310968 0.996938 2.000000
v -5.310968 -1.000000 2.000000
v -4.312905 0.990815 -2.000000
v -5.310000 0.990815 -2.000000
v -5.310000 0.987754 -4.000000
v -3.813874 -1.000000 -4.000000
v -4.312905 -1.000000 -2.000000
v 3.687095 -1.000000 -2.000000
v 1.687095 -1.000000 -2.000000
v 3.687095 0.990815 -2.000000
v 1.687095 0.990815 -2.000000
v 4.186126 -1.000000 -4.000000
v 2.186126 -1.000000 -4.000000
v 4.186126 0.523248 -4.000000
v 3.612374 0.414002 -4.000000
v 6.690000 0.987754 -4.000000
v 6.690000 0.990815 -2.000000
v 5.687095 -1.000000 -2.000000
v 5.687095 0.990815 -2.000000
v 6.186126 -1.000000 -4.000000
v 6.938547 -1.000000 1.000000
v 8.938547 -1.000000 1.000000
v 10.190001 0.995408 1.000000
v 6.190000 0.995408 1.000000
v 6.938548 0.995408 1.000000
v 8.938547 0.995408 1.000000
v 6.190000 0.992346 -1.000000
v 7.437578 0.992346 -1.000000
v 9.437578 0.992346 -1.000000
v 10.190001 0.992346 -1.000000
v 7.437579 -1.000000 -1.000000
v 9.437578 -1.000000 -1.000000
v -5.061453 0.995408 1.000000
v -6.310000 0.995408 1.000000
v -5.061453 -1.000000 1.000000
v -4.562421 -1.000000 -1.000000
v -6.310000 0.992346 -1.000000
v -4.562421 0.992346 -1.000000
vn -0.0000 1.0000 -0.0000
vn -0.0000 -0.0000 1.0000
vn -0.0000 -1.0000 -0.0000
vn 0.9703 -0.0000 0.2421
vn -0.0000 1.0000 -0.0015
vn -0.0000 -1.0000 0.0015
vn -0.0000 -0.0000 -1.0000
vn -0.9703 -0.0000 -0.2421
vn -1.0000 -0.0000 -0.0000
vn 1.0000 -0.0000 -0.0000
vt 0.625000 0.739482
vt 0.625000 0.500000
vt 0.875000 0.500000
vt 0.875000 0.718690
vt 0.625000 0.031311
vt 0.625000 0.250000
vt 0.624426 0.250000
vt 0.624426 0.197977
vt 0.375000 0.197977
vt 0.375000 0.031311
vt 0.125000 0.718690
vt 0.125000 0.552023
vt 0.375000 0.572816
vt 0.375000 0.739482
vt 0.563457 0.406250
vt 0.563074 0.343750
vt 0.438074 0.343750
vt 0.438457 0.406250
vt 0.875000 0.750000
vt 0.625000 0.750000
vt 0.687500 0.625363
vt 0.625000 0.562984
vt 0.875000 0.625000
vt 0.812500 0.562621
vt 0.812500 0.750000
vt 0.781250 0.750000
vt 0.781250 0.593932
vt 0.718750 0.531553
vt 0.718750 0.750000
vt 0.687500 0.750000
vt 0.376148 0.812500
vt 0.625000 0.812500
vt 0.625000 0.843750
vt 0.375957 0.843750
vt 0.375574 0.906250
vt 0.625000 0.906250
vt 0.625000 0.937500
vt 0.375383 0.937500
vt 0.375000 1.000000
vt 0.375000 0.750000
vt 0.376531 0.750000
vt 0.375000 0.250000
vt 0.375000 0.125000
vt 0.625000 0.125000
vt 0.625000 0.000000
vt 0.375000 0.000000
vt 0.125000 0.625000
vt 0.125000 0.500000
vt 0.375000 0.500000
vt 0.125000 0.750000
vt 0.376531 0.562984
vt 0.875000 0.541667
vt 0.875000 0.708333
vt 0.625000 0.729126
vt 0.375000 0.208333
vt 0.375000 0.041667
vt 0.625000 0.041667
vt 0.625000 0.208333
vt 0.375000 0.729126
vt 0.125000 0.708333
vt 0.125000 0.541667
vt 0.375000 0.562460
vt 0.624617 0.562460
vt 0.624617 0.500000
vt 0.562883 0.312500
vt 0.562500 0.250000
vt 0.437500 0.250000
vt 0.437883 0.312500
vt 0.623469 0.750000
vt 0.625000 1.000000
vt 0.623852 1.000000
vt 0.623852 0.020894
vt 0.623852 0.000000
vt 0.623852 0.250000
vt 0.623852 0.229227
vt 0.375000 0.229227
vt 0.375000 0.104227
vt 0.623852 0.104227
vt 0.623852 0.062561
vt 0.375000 0.062561
vt 0.375000 0.020894
vt 0.125000 0.645773
vt 0.125000 0.520773
vt 0.375000 0.531169
vt 0.375000 0.656169
vt 0.125000 0.729106
vt 0.125000 0.687439
vt 0.375000 0.697836
vt 0.375000 0.739503
vt 0.623469 0.531169
vt 0.623469 0.500000
vt 0.623469 0.739503
vt 0.565406 0.697836
vt 0.623469 0.697836
vt 0.623469 0.656169
vt 0.551750 0.685883
vt 0.687500 0.500000
vt 0.376148 0.812500
vt 0.376531 0.500000
vt 0.376148 0.437500
vt 0.625000 0.437500
vt 0.781250 0.656432
vt 0.718750 0.594053
vt 0.718750 0.750000
vt 0.687500 0.625363
vt 0.625000 0.843750
vt 0.375957 0.843750
vt 0.375574 0.906250
vt 0.376531 0.562984
vt 0.376148 0.437500
vt 0.718750 0.500000
vt 0.718750 0.594053
vt 0.781250 0.656432
vt 0.781250 0.500000
vt 0.625000 0.343750
vt 0.375574 0.343750
vt 0.375957 0.406250
vt 0.625000 0.406250
vt 0.624426 1.000000
vt 0.624043 0.750000
vt 0.624043 0.500000
vt 0.375000 0.078216
vt 0.624426 0.078216
vt 0.624426 0.000000
vt 0.624426 0.203216
vt 0.375000 0.203216
vt 0.125000 0.546784
vt 0.375000 0.577974
vt 0.375000 0.702974
vt 0.125000 0.671784
vt 0.624043 0.577974
vt 0.624043 0.702974
vt 0.624043 0.572816
s 0
usemtl Material
f 4/1/1 1/2/1 2/3/1 3/4/1
f 3/5/2 2/6/2 90/7/2 89/8/2 91/9/2 5/10/2
f 5/11/3 91/12/3 92/13/3 6/14/3
f 4/15/4 3/16/4 5/17/4 6/18/4
f 7/2/1 9/3/1 10/19/1 8/20/1
f 60/21/5 61/22/5 11/2/5 48/3/5 42/23/5 56/24/5 57/25/5 89/26/5 90/27/5 93/28/5 94/29/5 59/30/5
f 63/31/4 59/32/4 94/33/4 92/34/4 91/35/4 89/36/4 57/37/4 58/38/4 54/39/4 45/40/4 62/41/4
f 48/6/2 50/42/2 47/43/2 42/44/2
f 52/45/2 42/44/2 47/43/2 54/46/2
f 47/47/6 50/48/6 37/49/6 45/40/6 54/50/6
f 37/49/7 11/2/7 61/22/7 31/51/7 62/41/7 45/40/7
f 61/22/7 44/20/7 62/41/7 31/51/7
f 50/42/8 48/6/8 11/2/8 37/49/8
f 52/52/1 49/53/1 51/54/1 27/2/1 42/3/1
f 54/55/2 55/56/2 49/57/2 52/58/2
f 53/59/3 55/60/3 54/61/3 58/62/3
f 57/63/7 56/64/7 27/2/7 51/54/7 53/59/7 58/62/7
f 42/6/9 27/2/9 56/64/9
f 51/65/4 49/66/4 55/67/4 53/68/4
f 26/2/1 43/3/1 46/19/1 35/20/1
f 72/69/10 35/20/10 46/70/10 73/71/10
f 75/72/2 73/73/2 46/45/2 43/6/2 60/74/2 59/75/2 63/76/2 65/77/2 67/78/2 66/79/2 64/80/2 74/81/2
f 65/82/3 63/83/3 62/84/3 69/85/3
f 74/86/3 64/87/3 68/88/3 76/89/3
f 44/90/7 61/91/7 26/2/7 35/20/7 72/69/7 13/92/7 76/89/7 68/88/7 70/93/7 30/94/7 16/95/7 69/85/7 62/84/7
f 13/92/7 72/69/7 40/40/7 76/89/7
f 71/96/7 70/93/7 68/88/7 69/85/7 16/95/7 30/94/7
f 30/94/7 70/93/7 71/96/7
f 60/74/9 43/6/9 26/2/9 61/91/9
f 36/3/5 39/19/5 66/30/5 67/97/5
f 64/98/4 66/32/4 39/70/4 41/39/4 34/40/4 68/41/4
f 41/46/2 39/45/2 36/6/2 38/42/2
f 38/48/6 19/49/6 34/40/6 41/50/6
f 68/41/7 34/40/7 19/49/7 69/99/7
f 65/100/8 69/99/8 19/49/8 38/42/8 36/6/8 67/101/8
f 75/97/5 28/3/5 32/19/5 81/26/5 80/102/5 83/103/5 84/104/5 22/20/5 72/22/5 73/105/5
f 24/40/4 22/20/4 84/106/4 87/107/4 77/108/4 81/36/4 32/70/4 33/39/4
f 33/46/2 32/45/2 28/6/2 29/42/2
f 29/48/6 18/49/6 24/40/6 33/50/6
f 40/109/7 72/22/7 22/20/7 24/40/7 18/49/7 76/99/7
f 74/110/8 76/99/8 18/49/8 29/42/8 28/6/8 75/101/8
f 12/2/5 85/111/5 86/112/5 79/113/5 82/114/5 20/3/5 23/19/5 15/20/5
f 17/40/4 15/20/4 23/70/4 25/39/4
f 25/46/2 23/45/2 20/6/2 21/42/2
f 21/48/6 14/49/6 17/40/6 25/50/6
f 14/49/7 12/2/7 15/20/7 17/40/7
f 21/42/8 20/6/8 82/115/8 78/116/8 88/117/8 85/118/8 12/2/8 14/49/8
f 79/119/10 86/120/10 8/20/10 10/70/10
f 83/121/9 80/7/9 9/6/9 7/2/9
f 78/122/2 82/123/2 79/124/2 10/45/2 9/6/2 80/7/2 81/125/2 77/126/2
f 77/127/3 87/128/3 88/129/3 78/130/3
f 87/128/7 84/131/7 83/121/7 7/2/7 8/20/7 86/120/7 85/132/7 88/129/7
f 93/121/9 90/7/9 2/6/9 1/2/9
f 92/13/7 94/133/7 93/121/7 1/2/7 4/1/7 6/14/7
