# Blender v3.0.1 OBJ File: ''
# www.blender.org
o Sphere
v 0.000000 0.965926 -0.258819
v 0.000000 0.707107 -0.707107
v 0.000000 0.500000 -0.866025
v 0.000000 0.258819 -0.965926
v 0.000000 -0.000000 -1.000000
v 0.000000 -0.258819 -0.965926
v 0.000000 -0.500000 -0.866025
v 0.000000 -0.707107 -0.707107
v 0.000000 -0.866025 -0.500000
v 0.000000 -0.965926 -0.258819
v 0.099046 0.965926 -0.239118
v 0.191342 0.866025 -0.461940
v 0.270598 0.707107 -0.653281
v 0.331414 0.500000 -0.800103
v 0.369644 0.258819 -0.892399
v 0.382683 -0.000000 -0.923880
v 0.369644 -0.258819 -0.892399
v 0.331414 -0.500000 -0.800103
v 0.270598 -0.707107 -0.653281
v 0.191342 -0.866025 -0.461940
v 0.099046 -0.965926 -0.239118
v 0.183013 0.965926 -0.183013
v 0.353553 0.866025 -0.353553
v 0.500000 0.707107 -0.500000
v 0.612373 0.500000 -0.612372
v 0.683013 0.258819 -0.683013
v 0.707107 -0.000000 -0.707107
v 0.683013 -0.258819 -0.683013
v 0.612373 -0.500000 -0.612372
v 0.500000 -0.707107 -0.500000
v 0.353554 -0.866025 -0.353553
v 0.183013 -0.965926 -0.183013
v 0.239118 0.965926 -0.099046
v 0.461940 0.866025 -0.191342
v 0.653282 0.707107 -0.270598
v 0.800103 0.500000 -0.331413
v 0.892399 0.258819 -0.369644
v 0.923880 -0.000000 -0.382683
v 0.892399 -0.258819 -0.369644
v 0.800103 -0.500000 -0.331413
v 0.653282 -0.707107 -0.270598
v 0.461940 -0.866025 -0.191342
v 0.239118 -0.965926 -0.099046
v 0.258819 0.965926 0.000000
v 0.500000 0.866025 0.000000
v 0.707107 0.707107 0.000000
v 0.866026 0.500000 0.000000
v 0.965926 0.258819 0.000000
v 1.000000 -0.000000 0.000000
v 0.965926 -0.258819 0.000000
v 0.866026 -0.500000 0.000000
v 0.707107 -0.707107 0.000000
v 0.500000 -0.866025 0.000000
v 0.258819 -0.965926 0.000000
v 0.239118 0.965926 0.099046
v 0.461940 0.866025 0.191342
v 0.653282 0.707107 0.270598
v 0.800103 0.500000 0.331414
v 0.892399 0.258819 0.369644
v 0.923879 -0.000000 0.382684
v 0.892399 -0.258819 0.369644
v 0.800103 -0.500000 0.331414
v 0.653282 -0.707107 0.270598
v 0.461940 -0.866025 0.191342
v 0.239118 -0.965926 0.099046
v 0.183013 0.965926 0.183013
v 0.353553 0.866025 0.353554
v 0.500000 0.707107 0.500000
v 0.612372 0.500000 0.612373
v 0.683013 0.258819 0.683013
v 0.707107 -0.000000 0.707107
v 0.683013 -0.258819 0.683013
v 0.612372 -0.500000 0.612373
v 0.500000 -0.707107 0.500000
v 0.353553 -0.866025 0.353554
v 0.183013 -0.965926 0.183013
v 0.099046 0.965926 0.239118
v 0.191342 0.866025 0.461940
v 0.270598 0.707107 0.653282
v 0.331413 0.500000 0.800103
v 0.369644 0.258819 0.892399
v 0.382683 -0.000000 0.923880
v 0.369644 -0.258819 0.892399
v 0.331413 -0.500000 0.800103
v 0.270598 -0.707107 0.653282
v 0.191342 -0.866025 0.461940
v 0.099046 -0.965926 0.239118
v -0.000000 0.965926 0.258819
v -0.000000 0.866025 0.500000
v -0.000000 0.707107 0.707107
v -0.000000 0.500000 0.866026
v -0.000000 0.258819 0.965926
v -0.000000 -0.000000 1.000000
v -0.000000 -0.258819 0.965926
v -0.000000 -0.500000 0.866026
v -0.000000 -0.707107 0.707107
v -0.000000 -0.866025 0.500000
v -0.000000 -0.965926 0.258819
v -0.000000 1.000000 0.000000
v -0.099046 0.965926 0.239118
v -0.191342 0.866025 0.461940
v -0.270598 0.707107 0.653282
v -0.331414 0.500000 0.800103
v -0.369644 0.258819 0.892399
v -0.382684 -0.000000 0.923880
v -0.369644 -0.258819 0.892399
v -0.331414 -0.500000 0.800103
v -0.270598 -0.707107 0.653282
v -0.191342 -0.866025 0.461940
v -0.099046 -0.965926 0.239118
v -0.183013 0.965926 0.183013
v -0.353553 0.866025 0.353553
v -0.500000 0.707107 0.500000
v -0.612373 0.500000 0.612372
v -0.683013 0.258819 0.683013
v -0.707107 -0.000000 0.707107
v -0.683013 -0.258819 0.683013
v -0.612373 -0.500000 0.612372
v -0.500000 -0.707107 0.500000
v -0.353554 -0.866025 0.353553
v -0.183013 -0.965926 0.183013
v 0.000000 -1.000000 0.000000
v -0.239118 0.965926 0.099046
v -0.461940 0.866025 0.191342
v -0.653282 0.707107 0.270598
v -0.800103 0.500000 0.331413
v -0.892399 0.258819 0.369644
v -0.923880 -0.000000 0.382683
v -0.892399 -0.258819 0.369644
v -0.800103 -0.500000 0.331413
v -0.653282 -0.707107 0.270598
v -0.461940 -0.866025 0.191342
v -0.239118 -0.965926 0.099046
v -0.258819 0.965926 -0.000000
v -0.500000 0.866025 -0.000000
v -0.707107 0.707107 -0.000000
v -0.866025 0.500000 -0.000000
v -0.965926 0.258819 -0.000000
v -1.000000 -0.000000 -0.000000
v -0.965926 -0.258819 -0.000000
v -0.866025 -0.500000 -0.000000
v -0.707107 -0.707107 -0.000000
v -0.500000 -0.866025 -0.000000
v -0.258819 -0.965926 -0.000000
v -0.239118 0.965926 -0.099046
v -0.461940 0.866025 -0.191342
v -0.653281 0.707107 -0.270598
v -0.800103 0.500000 -0.331414
v -0.892399 0.258819 -0.369644
v -0.923879 -0.000000 -0.382684
v -0.892399 -0.258819 -0.369644
v -0.800103 -0.500000 -0.331414
v -0.653281 -0.707107 -0.270598
v -0.461940 -0.866025 -0.191342
v -0.239118 -0.965926 -0.099046
v -0.183013 0.965926 -0.183013
v -0.353553 0.866025 -0.353553
v -0.500000 0.707107 -0.500000
v -0.612372 0.500000 -0.612373
v -0.683012 0.258819 -0.683013
v -0.707106 -0.000000 -0.707107
v -0.683012 -0.258819 -0.683013
v -0.612372 -0.500000 -0.612372
v -0.500000 -0.707107 -0.500000
v -0.353553 -0.866025 -0.353553
v -0.183013 -0.965926 -0.183013
v -0.099046 0.965926 -0.239118
v -0.191341 0.866025 -0.461940
v -0.270598 0.707107 -0.653281
v -0.331413 0.500000 -0.800103
v -0.369643 0.258819 -0.892399
v -0.382683 -0.000000 -0.923880
v -0.369643 -0.258819 -0.892399
v -0.331413 -0.500000 -0.800103
v -0.270598 -0.707107 -0.653281
v -0.191342 -0.866025 -0.461940
v -0.099046 -0.965926 -0.239118
v 0.000000 0.866025 -0.500000
vn 0.0260 -0.9911 -0.1305
vn 0.0759 0.9212 -0.3816
vn 0.1559 -0.6013 -0.7837
vn 0.1935 0.1281 -0.9727
vn 0.1202 0.7876 -0.6043
vn 0.1202 -0.7876 -0.6043
vn 0.1935 -0.1281 -0.9727
vn 0.1559 0.6013 -0.7837
vn 0.0759 -0.9212 -0.3816
vn 0.0260 0.9911 -0.1305
vn 0.1807 -0.3764 -0.9087
vn 0.1807 0.3764 -0.9087
vn 0.5510 -0.1281 -0.8246
vn 0.4439 0.6013 -0.6644
vn 0.2161 -0.9212 -0.3235
vn 0.0739 0.9911 -0.1106
vn 0.5147 -0.3764 -0.7703
vn 0.5147 0.3764 -0.7703
vn 0.0739 -0.9911 -0.1106
vn 0.2161 0.9212 -0.3235
vn 0.4439 -0.6013 -0.6644
vn 0.5510 0.1281 -0.8246
vn 0.3423 0.7876 -0.5123
vn 0.3423 -0.7876 -0.5123
vn 0.6644 -0.6013 -0.4439
vn 0.8246 0.1281 -0.5510
vn 0.5123 0.7876 -0.3423
vn 0.5123 -0.7876 -0.3423
vn 0.8246 -0.1281 -0.5510
vn 0.6644 0.6013 -0.4439
vn 0.3235 -0.9212 -0.2161
vn 0.1106 0.9911 -0.0739
vn 0.7703 -0.3764 -0.5147
vn 0.7703 0.3764 -0.5147
vn 0.1106 -0.9911 -0.0739
vn 0.3235 0.9212 -0.2161
vn 0.1305 0.9911 -0.0260
vn 0.9087 -0.3764 -0.1807
vn 0.9087 0.3764 -0.1807
vn 0.1305 -0.9911 -0.0260
vn 0.3816 0.9212 -0.0759
vn 0.7837 -0.6013 -0.1559
vn 0.9727 0.1281 -0.1935
vn 0.6043 0.7876 -0.1202
vn 0.6043 -0.7876 -0.1202
vn 0.9727 -0.1281 -0.1935
vn 0.7837 0.6013 -0.1559
vn 0.3816 -0.9212 -0.0759
vn 0.6043 -0.7876 0.1202
vn 0.9727 -0.1281 0.1935
vn 0.7837 0.6013 0.1559
vn 0.3816 -0.9212 0.0759
vn 0.1305 0.9911 0.0260
vn 0.9087 -0.3764 0.1807
vn 0.9087 0.3764 0.1807
vn 0.1305 -0.9911 0.0260
vn 0.3816 0.9212 0.0759
vn 0.7837 -0.6013 0.1559
vn 0.9727 0.1281 0.1935
vn 0.6043 0.7876 0.1202
vn 0.3235 0.9212 0.2161
vn 0.6644 -0.6013 0.4439
vn 0.8246 0.1281 0.5510
vn 0.5123 0.7876 0.3423
vn 0.5123 -0.7876 0.3423
vn 0.8246 -0.1281 0.5510
vn 0.6644 0.6013 0.4439
vn 0.3235 -0.9212 0.2161
vn 0.1106 0.9911 0.0739
vn 0.7703 -0.3764 0.5147
vn 0.7703 0.3764 0.5147
vn 0.1106 -0.9911 0.0739
vn 0.2161 -0.9212 0.3235
vn 0.0739 0.9911 0.1106
vn 0.5147 -0.3764 0.7703
vn 0.5147 0.3764 0.7703
vn 0.0739 -0.9911 0.1106
vn 0.2161 0.9212 0.3235
vn 0.4439 -0.6013 0.6644
vn 0.5510 0.1281 0.8246
vn 0.3423 0.7876 0.5123
vn 0.3423 -0.7876 0.5123
vn 0.5510 -0.1281 0.8246
vn 0.4439 0.6013 0.6644
vn 0.1202 0.7876 0.6043
vn 0.1202 -0.7876 0.6043
vn 0.1935 -0.1281 0.9727
vn 0.1559 0.6013 0.7837
vn 0.0759 -0.9212 0.3816
vn 0.0260 0.9911 0.1305
vn 0.1807 -0.3764 0.9087
vn 0.1807 0.3764 0.9087
vn 0.0260 -0.9911 0.1305
vn 0.0759 0.9212 0.3816
vn 0.1559 -0.6013 0.7837
vn 0.1935 0.1281 0.9727
vn -0.0260 -0.9911 0.1305
vn -0.0759 0.9212 0.3816
vn -0.1559 -0.6013 0.7837
vn -0.1935 0.1281 0.9727
vn -0.1202 0.7876 0.6043
vn -0.1202 -0.7876 0.6043
vn -0.1935 -0.1281 0.9727
vn -0.1559 0.6013 0.7837
vn -0.0759 -0.9212 0.3816
vn -0.0260 0.9911 0.1305
vn -0.1807 -0.3764 0.9087
vn -0.1807 0.3764 0.9087
vn -0.4439 0.6013 0.6644
vn -0.2161 -0.9212 0.3235
vn -0.0739 0.9911 0.1106
vn -0.5147 -0.3764 0.7703
vn -0.5147 0.3764 0.7703
vn -0.0739 -0.9911 0.1106
vn -0.2161 0.9212 0.3235
vn -0.4439 -0.6013 0.6644
vn -0.5510 0.1281 0.8246
vn -0.3423 0.7876 0.5123
vn -0.3423 -0.7876 0.5123
vn -0.5510 -0.1281 0.8246
vn -0.5123 0.7876 0.3423
vn -0.5123 -0.7876 0.3423
vn -0.8246 -0.1281 0.5510
vn -0.6644 0.6013 0.4439
vn -0.3235 -0.9212 0.2161
vn -0.1106 0.9911 0.0739
vn -0.7703 -0.3764 0.5147
vn -0.7703 0.3764 0.5147
vn -0.1106 -0.9911 0.0739
vn -0.3235 0.9212 0.2161
vn -0.6644 -0.6013 0.4439
vn -0.8246 0.1281 0.5510
vn -0.9087 0.3764 0.1807
vn -0.1305 -0.9911 0.0260
vn -0.3816 0.9212 0.0759
vn -0.7837 -0.6013 0.1559
vn -0.9727 0.1281 0.1935
vn -0.6043 0.7876 0.1202
vn -0.6043 -0.7876 0.1202
vn -0.9727 -0.1281 0.1935
vn -0.7837 0.6013 0.1559
vn -0.3816 -0.9212 0.0759
vn -0.1305 0.9911 0.0260
vn -0.9087 -0.3764 0.1807
vn -0.7837 0.6013 -0.1559
vn -0.3816 -0.9212 -0.0759
vn -0.1305 0.9911 -0.0260
vn -0.9087 -0.3764 -0.1807
vn -0.9087 0.3764 -0.1807
vn -0.1305 -0.9911 -0.0260
vn -0.3816 0.9212 -0.0759
vn -0.7837 -0.6013 -0.1559
vn -0.9727 0.1281 -0.1935
vn -0.6043 0.7876 -0.1202
vn -0.6043 -0.7876 -0.1202
vn -0.9727 -0.1281 -0.1935
vn -0.8246 0.1281 -0.5510
vn -0.5123 0.7876 -0.3423
vn -0.5123 -0.7876 -0.3423
vn -0.8246 -0.1281 -0.5510
vn -0.6644 0.6013 -0.4439
vn -0.3235 -0.9212 -0.2161
vn -0.1106 0.9911 -0.0739
vn -0.7703 -0.3764 -0.5147
vn -0.7703 0.3764 -0.5147
vn -0.1106 -0.9911 -0.0739
vn -0.3235 0.9212 -0.2161
vn -0.6644 -0.6013 -0.4439
vn -0.5147 0.3764 -0.7703
vn -0.0739 -0.9911 -0.1106
vn -0.2161 0.9212 -0.3235
vn -0.4439 -0.6013 -0.6644
vn -0.5510 0.1281 -0.8246
vn -0.3423 0.7876 -0.5123
vn -0.3423 -0.7876 -0.5123
vn -0.5510 -0.1281 -0.8246
vn -0.4439 0.6013 -0.6644
vn -0.2161 -0.9212 -0.3235
vn -0.0739 0.9911 -0.1106
vn -0.5147 -0.3764 -0.7703
vn -0.1935 -0.1281 -0.9727
vn -0.1559 0.6013 -0.7837
vn -0.0759 -0.9212 -0.3816
vn -0.0260 0.9911 -0.1305
vn -0.1807 -0.3764 -0.9087
vn -0.1807 0.3764 -0.9087
vn -0.0260 -0.9911 -0.1305
vn -0.0759 0.9212 -0.3816
vn -0.1559 -0.6013 -0.7837
vn -0.1935 0.1281 -0.9727
vn -0.1202 0.7876 -0.6043
vn -0.1202 -0.7876 -0.6043
s off
f 122//1 10//1 21//1
f 178//2 11//2 12//2
f 7//3 19//3 8//3
f 4//4 16//4 5//4
f 178//5 13//5 2//5
f 9//6 19//6 20//6
f 5//7 17//7 6//7
f 2//8 14//8 3//8
f 9//9 21//9 10//9
f 1//10 99//10 11//10
f 6//11 18//11 7//11
f 3//12 15//12 4//12
f 16//13 28//13 17//13
f 13//14 25//14 14//14
f 20//15 32//15 21//15
f 11//16 99//16 22//16
f 18//17 28//17 29//17
f 14//18 26//18 15//18
f 122//19 21//19 32//19
f 11//20 23//20 12//20
f 18//21 30//21 19//21
f 15//22 27//22 16//22
f 12//23 24//23 13//23
f 19//24 31//24 20//24
f 29//25 41//25 30//25
f 26//26 38//26 27//26
f 24//27 34//27 35//27
f 31//28 41//28 42//28
f 27//29 39//29 28//29
f 24//30 36//30 25//30
f 31//31 43//31 32//31
f 22//32 99//32 33//32
f 29//33 39//33 40//33
f 25//34 37//34 26//34
f 122//35 32//35 43//35
f 22//36 34//36 23//36
f 33//37 99//37 44//37
f 39//38 51//38 40//38
f 36//39 48//39 37//39
f 122//40 43//40 54//40
f 33//41 45//41 34//41
f 40//42 52//42 41//42
f 37//43 49//43 38//43
f 35//44 45//44 46//44
f 41//45 53//45 42//45
f 38//46 50//46 39//46
f 36//47 46//47 47//47
f 42//48 54//48 43//48
f 52//49 64//49 53//49
f 49//50 61//50 50//50
f 47//51 57//51 58//51
f 54//52 64//52 65//52
f 44//53 99//53 55//53
f 51//54 61//54 62//54
f 48//55 58//55 59//55
f 122//56 54//56 65//56
f 45//57 55//57 56//57
f 51//58 63//58 52//58
f 48//59 60//59 49//59
f 46//60 56//60 57//60
f 55//61 67//61 56//61
f 62//62 74//62 63//62
f 60//63 70//63 71//63
f 56//64 68//64 57//64
f 63//65 75//65 64//65
f 60//66 72//66 61//66
f 57//67 69//67 58//67
f 65//68 75//68 76//68
f 55//69 99//69 66//69
f 62//70 72//70 73//70
f 58//71 70//71 59//71
f 122//72 65//72 76//72
f 75//73 87//73 76//73
f 66//74 99//74 77//74
f 73//75 83//75 84//75
f 69//76 81//76 70//76
f 122//77 76//77 87//77
f 66//78 78//78 67//78
f 73//79 85//79 74//79
f 70//80 82//80 71//80
f 67//81 79//81 68//81
f 75//82 85//82 86//82
f 71//83 83//83 72//83
f 69//84 79//84 80//84
f 78//85 90//85 79//85
f 85//86 97//86 86//86
f 83//87 93//87 94//87
f 80//88 90//88 91//88
f 87//89 97//89 98//89
f 77//90 99//90 88//90
f 84//91 94//91 95//91
f 80//92 92//92 81//92
f 122//93 87//93 98//93
f 77//94 89//94 78//94
f 84//95 96//95 85//95
f 81//96 93//96 82//96
f 122//97 98//97 110//97
f 88//98 101//98 89//98
f 95//99 108//99 96//99
f 93//100 104//100 105//100
f 90//101 101//101 102//101
f 96//102 109//102 97//102
f 93//103 106//103 94//103
f 91//104 102//104 103//104
f 98//105 109//105 110//105
f 88//106 99//106 100//106
f 94//107 107//107 95//107
f 92//108 103//108 104//108
f 103//109 113//109 114//109
f 110//110 120//110 121//110
f 100//111 99//111 111//111
f 107//112 117//112 118//112
f 103//113 115//113 104//113
f 122//114 110//114 121//114
f 100//115 112//115 101//115
f 107//116 119//116 108//116
f 104//117 116//117 105//117
f 101//118 113//118 102//118
f 108//119 120//119 109//119
f 105//120 117//120 106//120
f 112//121 125//121 113//121
f 120//122 131//122 132//122
f 116//123 129//123 117//123
f 114//124 125//124 126//124
f 120//125 133//125 121//125
f 111//126 99//126 123//126
f 118//127 129//127 130//127
f 114//128 127//128 115//128
f 122//129 121//129 133//129
f 111//130 124//130 112//130
f 118//131 131//131 119//131
f 115//132 128//132 116//132
f 126//133 138//133 127//133
f 122//134 133//134 144//134
f 123//135 135//135 124//135
f 130//136 142//136 131//136
f 128//137 138//137 139//137
f 124//138 136//138 125//138
f 131//139 143//139 132//139
f 128//140 140//140 129//140
f 126//141 136//141 137//141
f 133//142 143//142 144//142
f 123//143 99//143 134//143
f 130//144 140//144 141//144
f 137//145 147//145 148//145
f 144//146 154//146 155//146
f 134//147 99//147 145//147
f 140//148 152//148 141//148
f 137//149 149//149 138//149
f 122//150 144//150 155//150
f 134//151 146//151 135//151
f 141//152 153//152 142//152
f 139//153 149//153 150//153
f 135//154 147//154 136//154
f 143//155 153//155 154//155
f 139//156 151//156 140//156
f 149//157 161//157 150//157
f 146//158 158//158 147//158
f 153//159 165//159 154//159
f 150//160 162//160 151//160
f 148//161 158//161 159//161
f 155//162 165//162 166//162
f 145//163 99//163 156//163
f 151//164 163//164 152//164
f 148//165 160//165 149//165
f 122//166 155//166 166//166
f 145//167 157//167 146//167
f 152//168 164//168 153//168
f 160//169 170//169 171//169
f 122//170 166//170 177//170
f 156//171 168//171 157//171
f 163//172 175//172 164//172
f 161//173 171//173 172//173
f 157//174 169//174 158//174
f 164//175 176//175 165//175
f 161//176 173//176 162//176
f 159//177 169//177 170//177
f 166//178 176//178 177//178
f 156//179 99//179 167//179
f 162//180 174//180 163//180
f 172//181 6//181 173//181
f 170//182 2//182 3//182
f 176//183 10//183 177//183
f 167//184 99//184 1//184
f 173//185 7//185 174//185
f 171//186 3//186 4//186
f 122//187 177//187 10//187
f 168//188 1//188 178//188
f 174//189 8//189 175//189
f 172//190 4//190 5//190
f 168//191 2//191 169//191
f 175//192 9//192 176//192
f 178//2 1//2 11//2
f 7//3 18//3 19//3
f 4//4 15//4 16//4
f 178//5 12//5 13//5
f 9//6 8//6 19//6
f 5//7 16//7 17//7
f 2//8 13//8 14//8
f 9//9 20//9 21//9
f 6//11 17//11 18//11
f 3//12 14//12 15//12
f 16//13 27//13 28//13
f 13//14 24//14 25//14
f 20//15 31//15 32//15
f 18//17 17//17 28//17
f 14//18 25//18 26//18
f 11//20 22//20 23//20
f 18//21 29//21 30//21
f 15//22 26//22 27//22
f 12//23 23//23 24//23
f 19//24 30//24 31//24
f 29//25 40//25 41//25
f 26//26 37//26 38//26
f 24//27 23//27 34//27
f 31//28 30//28 41//28
f 27//29 38//29 39//29
f 24//30 35//30 36//30
f 31//31 42//31 43//31
f 29//33 28//33 39//33
f 25//34 36//34 37//34
f 22//36 33//36 34//36
f 39//38 50//38 51//38
f 36//39 47//39 48//39
f 33//41 44//41 45//41
f 40//42 51//42 52//42
f 37//43 48//43 49//43
f 35//44 34//44 45//44
f 41//45 52//45 53//45
f 38//46 49//46 50//46
f 36//47 35//47 46//47
f 42//48 53//48 54//48
f 52//49 63//49 64//49
f 49//50 60//50 61//50
f 47//51 46//51 57//51
f 54//52 53//52 64//52
f 51//54 50//54 61//54
f 48//55 47//55 58//55
f 45//57 44//57 55//57
f 51//58 62//58 63//58
f 48//59 59//59 60//59
f 46//60 45//60 56//60
f 55//61 66//61 67//61
f 62//62 73//62 74//62
f 60//63 59//63 70//63
f 56//64 67//64 68//64
f 63//65 74//65 75//65
f 60//66 71//66 72//66
f 57//67 68//67 69//67
f 65//68 64//68 75//68
f 62//70 61//70 72//70
f 58//71 69//71 70//71
f 75//73 86//73 87//73
f 73//75 72//75 83//75
f 69//76 80//76 81//76
f 66//78 77//78 78//78
f 73//79 84//79 85//79
f 70//80 81//80 82//80
f 67//81 78//81 79//81
f 75//82 74//82 85//82
f 71//83 82//83 83//83
f 69//84 68//84 79//84
f 78//85 89//85 90//85
f 85//86 96//86 97//86
f 83//87 82//87 93//87
f 80//88 79//88 90//88
f 87//89 86//89 97//89
f 84//91 83//91 94//91
f 80//92 91//92 92//92
f 77//94 88//94 89//94
f 84//95 95//95 96//95
f 81//96 92//96 93//96
f 88//98 100//98 101//98
f 95//99 107//99 108//99
f 93//100 92//100 104//100
f 90//101 89//101 101//101
f 96//102 108//102 109//102
f 93//103 105//103 106//103
f 91//104 90//104 102//104
f 98//105 97//105 109//105
f 94//107 106//107 107//107
f 92//108 91//108 103//108
f 103//109 102//109 113//109
f 110//110 109//110 120//110
f 107//112 106//112 117//112
f 103//113 114//113 115//113
f 100//115 111//115 112//115
f 107//116 118//116 119//116
f 104//117 115//117 116//117
f 101//118 112//118 113//118
f 108//119 119//119 120//119
f 105//120 116//120 117//120
f 112//121 124//121 125//121
f 120//122 119//122 131//122
f 116//123 128//123 129//123
f 114//124 113//124 125//124
f 120//125 132//125 133//125
f 118//127 117//127 129//127
f 114//128 126//128 127//128
f 111//130 123//130 124//130
f 118//131 130//131 131//131
f 115//132 127//132 128//132
f 126//133 137//133 138//133
f 123//135 134//135 135//135
f 130//136 141//136 142//136
f 128//137 127//137 138//137
f 124//138 135//138 136//138
f 131//139 142//139 143//139
f 128//140 139//140 140//140
f 126//141 125//141 136//141
f 133//142 132//142 143//142
f 130//144 129//144 140//144
f 137//145 136//145 147//145
f 144//146 143//146 154//146
f 140//148 151//148 152//148
f 137//149 148//149 149//149
f 134//151 145//151 146//151
f 141//152 152//152 153//152
f 139//153 138//153 149//153
f 135//154 146//154 147//154
f 143//155 142//155 153//155
f 139//156 150//156 151//156
f 149//157 160//157 161//157
f 146//158 157//158 158//158
f 153//159 164//159 165//159
f 150//160 161//160 162//160
f 148//161 147//161 158//161
f 155//162 154//162 165//162
f 151//164 162//164 163//164
f 148//165 159//165 160//165
f 145//167 156//167 157//167
f 152//168 163//168 164//168
f 160//169 159//169 170//169
f 156//171 167//171 168//171
f 163//172 174//172 175//172
f 161//173 160//173 171//173
f 157//174 168//174 169//174
f 164//175 175//175 176//175
f 161//176 172//176 173//176
f 159//177 158//177 169//177
f 166//178 165//178 176//178
f 162//180 173//180 174//180
f 172//181 5//181 6//181
f 170//182 169//182 2//182
f 176//183 9//183 10//183
f 173//185 6//185 7//185
f 171//186 170//186 3//186
f 168//188 167//188 1//188
f 174//189 7//189 8//189
f 172//190 171//190 4//190
f 168//191 178//191 2//191
f 175//192 8//192 9//192
